<?xml version="1.0" encoding="utf-8"?>
<!-- Generator: Adobe Illustrator 23.0.1, SVG Export Plug-In . SVG Version: 6.00 Build 0)  -->
<svg version="1.1" id="Layer_1" xmlns="http://www.w3.org/2000/svg" xmlns:xlink="http://www.w3.org/1999/xlink" x="0px" y="0px"
	 viewBox="0 0 512 512" style="enable-background:new 0 0 512 512;" xml:space="preserve">
<style type="text/css">
	.st0{fill:#FFFFFF;}
</style>
<g>
	<g>
		<g>
			
				<ellipse transform="matrix(0.1602 -0.9871 0.9871 0.1602 167.1897 307.588)" class="st0" cx="264.4" cy="55.5" rx="42.5" ry="42.5"/>
		</g>
	</g>
	<g>
		<g>
			<path class="st0" d="M418.9,203.1c-9.3-5.3-21.3-2.1-26.6,7.3c-3.1,5.5-3.3,11.9-1,17.3l-3.1,5.4l-29.2-31L334.9,128
				c-2.4-7.4-9-12.3-16.3-13v-0.3h-94.2c-0.2-0.1-0.4-0.2-0.7-0.3l-56.9-22.3L162.1,37l10.4,0c3.5,4.7,9.1,7.8,15.5,7.8
				c10.8,0,19.5-8.6,19.6-19.4c0-10.8-8.6-19.5-19.4-19.6c-6.3,0-12,3-15.5,7.7l-12.9-0.1c-2.5-8.4-10.7-14.2-19.8-13.4
				c-7.9,0.7-14.2,6.1-16.4,13.2l-5.1,0c-3.5-4.7-9.1-7.8-15.5-7.8c-10.8,0-19.5,8.6-19.6,19.4c0,10.8,8.6,19.5,19.4,19.6
				c6.3,0,12-3,15.5-7.7l5.9,0l6.2,70.3c0.6,7.2,5.3,13.3,11.9,16l67.8,26.6c0,0,0.1,0,0.1,0v132.6l-46.9,199.5
				c-3.1,13.2,5.1,26.5,18.3,29.6c13.2,3.1,26.5-5.1,29.6-18.3l47.6-202.3h11.5L317.7,493c3.1,13.2,16.4,21.4,29.6,18.3
				c13.2-3.1,21.4-16.4,18.3-29.6l-46.9-199.5v-82.1l5.7,17.6c0.9,2.7,2.3,5.1,4.2,7.1l40,42.4l-4.2,7.4c-5.8,0.8-11.3,4.1-14.4,9.6
				c-5.3,9.3-2.1,21.3,7.3,26.6c9.3,5.3,21.3,2.1,26.6-7.3c3.1-5.5,3.3-11.9,1-17.3l2.4-4.2c6.1,1.3,12.4-0.5,16.9-4.7
				c7.5-7.1,7.9-18.9,1-26.5l6.6-11.6c5.8-0.8,11.3-4.1,14.4-9.6C431.5,220.3,428.3,208.4,418.9,203.1z"/>
		</g>
	</g>
</g>
</svg>
