<?xml version="1.0" encoding="utf-8"?>
<!-- Generator: Adobe Illustrator 23.0.1, SVG Export Plug-In . SVG Version: 6.00 Build 0)  -->
<svg version="1.1" id="Layer_1" xmlns="http://www.w3.org/2000/svg" xmlns:xlink="http://www.w3.org/1999/xlink" x="0px" y="0px"
	 viewBox="0 0 512 319.3" style="enable-background:new 0 0 512 319.3;" xml:space="preserve">
<style type="text/css">
	.st0{fill:#FFFFFF;}
</style>
<g>
	<path class="st0" d="M512,233.1c-1,4.5-1.9,9-3,13.4c-7.8,30.5-26.5,51.9-54.9,65c-12.1,5.6-25.1,7.7-38.5,7.7
		c-106.4,0-212.8-0.2-319.2,0c-41.7,0.1-78.6-26.6-91.2-65.9c-10.3-32.2-5-62.4,15.8-89c19.7-25.2,46.2-37.1,78.3-36.7
		c1.3,0,3.3-1.3,3.8-2.5c12.6-30.7,34.7-50.5,66.8-58.9c11.9-3.1,24-3.2,36.1-1.5c2.4,0.4,3.6-0.3,4.9-2.4
		c26-41.4,63.2-63,112.4-62.5c30,0.3,56.6,10.6,79.3,29.9c24.4,20.7,39.4,47.2,43.8,79.2c1,7,1.2,14.1,1.2,21.1c0,3,1.6,3.8,3.6,4.5
		c11.6,4.4,21.8,11,30.8,19.5c16.4,15.4,25.8,34.4,29.2,56.5c0.2,1.2,0.6,2.3,0.9,3.5C512,220.6,512,226.9,512,233.1z M255.9,287.8
		c49.5,0,98.9,0,148.4,0c4.9,0,9.8-0.2,14.7-0.5c27.5-1.6,49.3-18.3,58-44.5c10-29.9-5.6-64.8-34.8-77.1c-6.8-2.8-13.8-5-20.6-7.7
		c-7.5-2.9-7.2-3-6.6-11.1c1.6-18.8,1.6-37.4-6-55.4c-9.1-21.4-23.5-37.7-43.9-48.7c-20-10.7-41.4-13.8-63.7-9.2
		c-20,4.1-36.7,13.8-50.7,28.5c-8.7,9.2-14.8,20.1-20.9,31.1c-4.1,7.3-4,7.4-12.5,5.9c-1.3-0.2-2.7-0.5-4-0.7
		c-16.2-3.2-32.4-4.5-47.9,3.2c-13.6,6.7-24.2,16.6-30.4,30.5c-3.7,8.3-6.6,17-9.6,25.5c-0.9,2.7-2,3.9-5.1,3.6
		c-8.7-0.8-17.4-1.7-26.1-1.7c-25.1,0.2-50.3,17.6-59.2,44.7c-9.4,28.7,5.1,63.5,32.3,76.4c10.6,5,21.7,7.1,33.2,7.1
		C152.4,287.9,204.2,287.8,255.9,287.8z"/>
	<g>
		<path class="st0" d="M323.8,178.8c0-0.8,0-1.6,0-2.3c0-12.2,0-24.4,0-36.5c0-4.9,1.3-9.4,5-12.9c5.7-5.5,15-4.5,19.5,2
			c2.3,3.3,3.2,6.9,3.2,10.7c0,34.6,0,69.2,0,103.8c0,4.9-1.4,9.2-5,12.8c-5.4,5.4-14.9,4.5-19.3-1.7c-2.5-3.5-3.4-7.3-3.4-11.4
			c0-12.1,0-24.1,0-36.2c0-0.8,0-1.5,0-2.5c-33.7,0-67.3,0-101.2,0c0,0.7,0,1.5,0,2.2c0,12.2,0,24.4,0,36.5c0,4.9-1.2,9.2-4.8,12.8
			c-6.3,6.3-16.4,4.5-20.7-3.4c-1.7-3-2.2-6.3-2.2-9.7c0-34.4,0-68.7,0-103.1c0-4.9,1.3-9.4,4.9-13c5.5-5.5,14.9-4.6,19.5,1.7
			c2.4,3.4,3.3,7.2,3.3,11.3c0,12.1,0,24.2,0,36.4c0,0.8,0,1.5,0,2.4C256.4,178.8,290,178.8,323.8,178.8z"/>
		<path class="st0" d="M380.5,191.7c0,11.9,0,23.8,0,35.8c0,4.6-1.5,8.5-5.9,10.4c-7.6,3.4-16.3-0.7-16.3-9.4
			c-0.1-24.5-0.1-49.1,0-73.6c0-5.5,3.7-9.7,8.8-10.3c6.5-0.9,11.4,2,13,7.6c0.4,1.5,0.4,3.1,0.4,4.6
			C380.5,168.4,380.5,180.1,380.5,191.7z"/>
		<path class="st0" d="M166.7,191.7c0-12,0-24,0-36c0-4.5,1.6-8.2,5.7-10.2c6.6-3.1,15.8-0.5,16.5,8.9c0,0.6,0,1.2,0,1.7
			c0,23.6,0,47.3,0,70.9c0,4.2-1.1,7.8-4.8,10.1c-3.7,2.3-7.8,2.4-11.6,0.6c-4.1-1.9-5.8-5.4-5.8-9.9
			C166.7,215.9,166.7,203.8,166.7,191.7z"/>
		<path class="st0" d="M395.4,191.7c0,5,0,9.9,0,14.9c0,3.5-1.8,6-4.2,6c-2.3,0-4.2-2.6-4.2-6.1c0-8.9,0-17.8,0-26.7
			c0-1.7,0-3.5,0.3-5.2c0.4-2.1,2.2-3.8,3.9-3.8c1.6,0,3.3,1.4,3.9,3.5c0.2,0.8,0.3,1.6,0.3,2.5
			C395.4,181.8,395.4,186.7,395.4,191.7z"/>
		<path class="st0" d="M161.5,191.7c0,5,0,9.9,0,14.9c0,3.5-1.8,6-4.2,6c-2.3,0-4.2-2.6-4.2-6.1c0-8.9,0-17.8,0-26.7
			c0-1.7,0-3.5,0.3-5.2c0.4-2.1,2.2-3.8,3.9-3.8c1.6,0,3.3,1.4,3.9,3.5c0.2,0.8,0.3,1.6,0.3,2.5
			C161.5,181.8,161.5,186.7,161.5,191.7z"/>
	</g>
</g>
</svg>
